<?xml version="1.0" standalone="no"?>
<!DOCTYPE svg PUBLIC "-//W3C//DTD SVG 20010904//EN"
 "http://www.w3.org/TR/2001/REC-SVG-20010904/DTD/svg10.dtd">
<svg version="1.0" xmlns="http://www.w3.org/2000/svg"
 width="923.000000pt" height="841.000000pt" viewBox="0 0 923.000000 841.000000"
 preserveAspectRatio="xMidYMid meet">

<g transform="translate(0.000000,841.000000) scale(0.100000,-0.100000)"
fill="#000000" stroke="none">
<path d="M4315 8399 c-1471 -104 -2793 -987 -3455 -2308 -234 -469 -367 -924
-426 -1464 -12 -104 -17 -237 -17 -422 0 -295 14 -470 60 -723 14 -81 27 -160
27 -176 l1 -29 -219 -59 c-121 -32 -221 -60 -222 -61 -1 -1 -15 -79 -30 -172
-34 -212 -38 -456 -10 -600 32 -165 52 -221 200 -552 91 -203 106 -326 68
-544 l-19 -107 56 -6 c259 -29 567 -26 839 9 133 17 423 65 434 72 4 2 69 -53
144 -122 330 -304 617 -502 1009 -695 121 -60 285 -134 365 -164 1075 -407
2265 -359 3302 132 405 192 794 462 1113 773 l80 77 135 -24 c438 -79 820 -98
1158 -58 51 6 53 8 48 33 -43 211 -45 353 -6 474 11 37 56 146 100 241 153
338 174 428 174 726 -1 174 -5 228 -27 353 -14 82 -28 151 -30 153 -2 3 -101
31 -220 62 -119 32 -219 61 -222 64 -3 3 4 47 14 100 100 485 106 1059 15
1563 -157 878 -573 1657 -1220 2284 -853 828 -2026 1254 -3219 1170z m535
-129 c729 -44 1397 -264 1994 -657 524 -344 941 -778 1268 -1318 419 -693 624
-1541 568 -2355 -19 -275 -73 -593 -138 -820 -30 -104 -32 -107 -107 -95 l-43
6 15 45 c14 41 30 59 79 91 16 10 12 10 -16 2 -19 -5 -35 -9 -36 -9 -9 0 13
53 23 57 8 3 10 8 5 12 -6 4 1 55 18 134 115 524 119 1098 10 1637 -234 1161
-996 2166 -2062 2720 -769 399 -1666 532 -2528 374 -1413 -259 -2579 -1273
-3035 -2639 -221 -663 -262 -1359 -119 -2054 18 -91 30 -167 24 -169 -5 -2 0
-12 11 -23 29 -29 25 -51 -8 -43 l-28 6 25 -21 c14 -11 28 -21 32 -21 8 0 39
-92 33 -98 -2 -3 -30 -5 -62 -6 l-58 -1 -42 165 c-145 575 -166 1169 -62 1747
220 1226 1017 2306 2124 2879 662 343 1384 498 2115 454z m162 -216 c1425
-141 2663 -1074 3198 -2409 51 -127 134 -378 145 -439 l7 -36 -45 0 c-62 0
-72 -5 -112 -61 -41 -57 -102 -104 -157 -121 -35 -10 -43 -8 -102 21 -73 37
-101 36 -162 -6 -41 -27 -60 -27 -137 3 l-48 19 -63 -34 c-36 -20 -70 -32 -79
-28 -20 8 -57 125 -57 184 0 48 11 75 43 111 26 28 46 28 90 -2 28 -19 44 -24
71 -19 25 4 44 0 62 -12 25 -16 25 -16 16 1 -7 13 -3 23 22 44 52 45 70 52 84
29 7 -10 21 -19 32 -19 10 0 23 -7 28 -16 7 -12 17 -14 48 -8 51 9 104 61 104
101 -1 35 -31 73 -59 73 -12 0 -40 12 -62 27 -38 25 -39 28 -23 40 27 20 66
16 106 -12 20 -14 46 -25 58 -25 30 0 60 18 60 35 0 8 11 22 25 31 29 19 32
45 9 65 -9 7 -23 29 -32 48 -16 34 -20 36 -70 39 -61 4 -66 16 -20 54 l32 26
-47 23 c-36 17 -47 29 -47 46 0 16 -11 28 -41 43 -23 12 -47 19 -56 16 -8 -3
-27 4 -44 16 -27 20 -33 21 -86 10 -60 -12 -85 -29 -114 -77 -11 -16 -19 -24
-19 -17 0 7 11 28 25 46 31 41 31 57 3 84 -32 29 -108 46 -176 39 -40 -4 -65
-2 -82 8 -48 28 -125 13 -161 -31 -8 -9 -29 -23 -47 -31 -21 -9 -37 -24 -44
-43 -6 -19 -17 -30 -28 -30 -10 0 -32 -11 -48 -25 -17 -14 -40 -25 -53 -25
-24 0 -34 -5 -102 -48 -46 -30 -72 -97 -44 -117 9 -7 28 -10 42 -7 17 3 38 -5
65 -23 22 -15 40 -31 40 -35 0 -4 -9 -15 -21 -26 -20 -18 -21 -18 -35 1 -27
40 -36 45 -77 45 l-42 0 -1 148 c-1 222 -42 342 -152 443 -94 86 -413 232
-664 303 -133 38 -237 48 -455 44 -217 -4 -205 -1 -323 -77 -102 -66 -263 -93
-565 -94 -299 -1 -326 16 -360 229 -25 151 -56 208 -148 269 -133 88 -330 86
-517 -6 -67 -33 -103 -60 -167 -124 -95 -95 -118 -104 -215 -81 -91 22 -153
45 -333 123 -88 39 -168 73 -177 77 -31 10 -20 42 27 80 51 42 101 136 110
206 11 84 -5 83 -98 -7 -52 -50 -98 -85 -122 -93 -72 -24 -195 10 -230 63 -8
13 -23 57 -33 98 -11 41 -25 85 -32 98 -6 13 -8 26 -3 30 661 469 1353 709
2148 745 119 5 383 -4 537 -20z m-2728 -851 c-9 -152 -6 -145 -109 -248 -83
-82 -99 -105 -144 -196 -34 -72 -61 -149 -86 -249 -70 -280 -100 -355 -200
-490 -90 -122 -100 -145 -86 -191 26 -85 166 -156 294 -147 54 3 74 11 157 61
52 32 105 60 117 63 55 14 78 -22 107 -169 26 -129 23 -123 87 -197 36 -42 66
-98 124 -230 42 -96 103 -231 134 -300 32 -69 67 -147 76 -175 25 -67 60 -101
116 -110 24 -4 56 -13 70 -21 25 -12 57 -44 46 -44 -27 0 -393 64 -432 76 -27
8 -95 21 -150 30 -104 15 -170 44 -199 86 -27 38 -93 75 -168 93 -58 15 -79
26 -109 56 -29 30 -46 39 -85 43 -152 19 -187 26 -206 42 -22 20 -71 23 -155
10 l-52 -8 -49 50 c-74 76 -115 80 -189 17 -23 -19 -46 -35 -51 -35 -17 0 -46
49 -76 125 -33 83 -56 111 -113 137 -24 10 -43 25 -43 33 0 25 103 310 157
435 247 569 645 1089 1133 1479 41 33 78 61 82 61 4 0 5 -39 2 -87z m5107
-1463 c37 -20 22 -35 -31 -32 -41 3 -53 0 -74 -21 -24 -24 -65 -38 -119 -39
-39 -1 -44 8 -18 36 16 17 38 25 81 30 32 4 64 13 70 21 14 17 63 20 91 5z
m-271 -129 c5 -11 10 -27 10 -36 0 -15 -4 -14 -34 5 -24 14 -43 19 -63 14
l-28 -6 30 20 c39 26 72 27 85 3z m330 -46 c10 -13 10 -19 -5 -35 -17 -19 -55
-27 -68 -14 -3 4 -1 16 5 28 20 38 47 46 68 21z m90 0 c9 -11 22 -14 42 -10
42 10 35 -11 -12 -35 l-40 -20 -20 20 c-20 20 -26 41 -13 53 11 12 30 8 43 -8z
m-40 -61 c11 -31 10 -38 -8 -57 -11 -12 -25 -33 -32 -46 -10 -19 -14 -21 -21
-10 -23 37 5 149 38 149 6 0 17 -16 23 -36z m168 6 c32 -1 -19 -30 -52 -30
-20 0 -38 -10 -58 -32 -24 -27 -27 -37 -22 -67 4 -20 13 -43 20 -51 13 -13 17
-11 38 15 18 22 27 27 36 19 21 -21 8 -68 -23 -82 -27 -13 -31 -12 -68 18 -36
29 -43 31 -72 21 l-31 -11 25 27 c34 38 53 70 68 116 10 29 23 43 59 61 39 20
48 22 55 10 4 -8 16 -14 25 -14z m-398 5 c0 -11 -11 -15 -37 -15 -49 0 -28 20
30 29 4 0 7 -6 7 -14z m108 -40 c26 -53 28 -84 7 -111 -13 -18 -14 -18 -15 -1
0 17 -23 56 -61 102 -9 11 -19 28 -22 38 -5 14 0 17 31 17 35 0 40 -3 60 -45z
m-125 4 c46 -21 90 -142 46 -130 -8 2 -60 5 -117 6 -76 1 -106 5 -112 15 -6 9
-32 14 -82 16 -91 2 -90 2 -83 14 3 6 39 10 78 10 53 0 82 -5 110 -20 71 -38
104 -25 111 45 3 28 5 51 5 53 2 5 21 1 44 -9z m-398 -79 c-3 -5 -12 -10 -19
-10 -8 0 -19 -7 -26 -16 -15 -17 -61 -15 -67 2 -2 6 11 16 29 21 43 14 91 16
83 3z m840 -66 c11 -17 22 -23 33 -19 12 4 10 -1 -7 -18 -12 -14 -36 -27 -52
-29 -29 -4 -29 -4 -23 31 11 71 21 78 49 35z m-577 -1 c2 -7 -3 -13 -11 -13
-8 0 -20 -7 -27 -15 -13 -16 -35 -21 -26 -6 3 5 -2 12 -11 15 -19 8 -8 22 22
29 30 7 48 4 53 -10z m145 -24 c45 -24 48 -57 11 -131 -21 -41 -24 -59 -19
-97 4 -34 1 -55 -12 -81 -16 -30 -25 -36 -73 -46 -30 -6 -82 -26 -114 -44 -56
-32 -66 -34 -195 -41 -75 -4 -160 -11 -188 -15 l-53 -7 0 79 c1 95 10 143 51
251 29 76 33 81 58 79 20 -3 27 -10 31 -32 5 -27 10 -30 63 -37 37 -5 63 -4
71 2 13 11 96 3 96 -10 0 -4 -14 -9 -32 -11 -39 -4 -51 -28 -14 -28 14 0 26
-5 26 -11 0 -7 9 -9 21 -6 12 3 29 1 38 -5 20 -12 78 13 88 38 3 7 13 14 22
14 42 1 69 60 27 60 -7 0 -17 7 -20 16 -3 8 -10 12 -16 9 -5 -3 -10 -2 -10 4
0 16 72 61 98 61 13 0 33 -5 45 -11z m-163 -35 c0 -9 -9 -18 -20 -21 -11 -3
-20 -14 -20 -25 0 -17 -5 -19 -32 -13 -41 9 -60 25 -31 25 33 0 52 10 47 25
-5 12 11 21 44 24 6 0 12 -6 12 -15z m1224 -464 c99 -6 181 -12 183 -13 1 -2
5 -55 7 -118 5 -112 5 -113 -8 -61 -8 30 -16 55 -18 57 -1 1 -84 8 -183 15
-117 8 -442 13 -922 13 l-741 0 -5 31 c-3 17 -2 34 2 38 5 6 361 32 551 41
169 8 975 6 1134 -3z m-7044 -141 c656 -47 1370 -127 1938 -219 101 -17 184
-30 185 -30 1 0 2 -85 2 -188 l0 -189 -47 -94 c-47 -93 -115 -195 -124 -186
-5 5 35 76 88 157 l29 45 -46 -50 c-26 -27 -68 -82 -95 -121 -27 -39 -60 -78
-74 -87 l-26 -17 12 27 c7 16 28 53 46 83 19 30 27 49 18 41 -26 -22 -87 -108
-121 -173 l-32 -60 -31 65 c-35 75 -89 139 -151 179 -25 15 -48 28 -51 28 -4
0 14 -21 39 -48 53 -54 92 -124 115 -199 8 -29 13 -53 12 -53 -2 0 -22 24 -46
54 -23 30 -57 66 -75 81 l-34 26 38 -58 c33 -51 71 -131 71 -150 0 -3 -24 20
-54 53 -48 52 -52 60 -37 72 14 12 14 12 -4 4 -15 -8 -28 -4 -63 21 -24 17
-46 35 -48 39 -3 5 5 23 17 41 l23 32 -23 -20 c-61 -53 -176 -237 -216 -348
-22 -59 -30 -54 -16 11 16 76 47 152 87 212 24 36 29 48 14 35 -35 -32 -118
-162 -137 -215 -19 -54 -27 -60 -42 -32 -10 20 11 76 50 135 19 28 16 27 -17
-8 -22 -22 -46 -51 -56 -65 -15 -23 -17 -23 -23 -7 -9 21 17 82 59 141 l29 41
-42 -40 c-23 -22 -51 -55 -63 -73 -20 -32 -21 -33 -41 -15 -20 18 -20 18 -5
-5 15 -22 14 -27 -5 -73 -12 -26 -24 -49 -27 -49 -3 0 -16 20 -29 45 -27 51
-111 134 -161 160 -33 17 -32 16 18 -40 53 -58 103 -144 116 -200 4 -16 10
-39 13 -50 3 -11 -15 7 -40 40 -25 33 -43 63 -40 67 2 5 -2 8 -10 8 -8 0 -27
10 -43 22 -26 20 -27 20 -11 2 23 -27 22 -39 -6 -51 -19 -9 -28 -7 -48 8 l-24
19 59 56 c51 48 54 54 25 39 -43 -22 -108 -73 -132 -102 -10 -13 -25 -23 -32
-23 -8 0 -12 -6 -10 -12 3 -7 -4 -24 -15 -38 -23 -29 -26 -12 -6 33 7 18 24
58 36 89 12 31 42 90 67 130 57 93 60 99 28 63 -84 -95 -176 -249 -216 -360
-16 -46 -18 -47 -18 -19 -1 44 33 147 74 224 l34 65 -35 -40 c-19 -22 -54 -79
-77 -127 -40 -82 -57 -105 -57 -74 0 7 -16 45 -35 84 -38 75 -123 170 -177
198 l-33 17 42 -45 c57 -63 92 -121 120 -198 34 -97 29 -111 -16 -44 -37 56
-101 126 -101 111 0 -4 14 -29 30 -56 26 -42 75 -161 66 -161 -2 0 -27 30 -56
68 -29 37 -77 87 -107 111 -51 43 -52 46 -38 68 8 13 22 35 31 51 16 27 16 27
-2 6 -57 -64 -127 -164 -161 -230 -36 -70 -54 -86 -61 -52 -1 8 15 49 36 91
41 83 25 80 -29 -5 l-32 -49 -51 48 c-85 81 -91 81 -32 -1 31 -43 56 -86 55
-95 -1 -22 -24 -86 -31 -86 -4 0 -24 27 -46 60 -22 33 -55 74 -72 90 l-31 30
35 -58 c31 -52 81 -177 71 -177 -2 0 -20 24 -39 53 -44 66 -155 197 -167 197
-5 0 2 -17 15 -38 28 -45 96 -178 96 -189 0 -4 -19 11 -42 34 -24 23 -63 53
-88 67 -44 25 -46 27 -76 130 l-32 105 32 6 c68 14 663 156 691 165 17 5 161
43 320 85 160 42 321 85 360 96 38 10 92 19 120 19 35 0 85 14 170 46 66 25
280 88 475 140 195 53 375 102 400 110 l45 14 -50 -6 c-106 -12 -521 -85 -741
-130 l-229 -46 -310 -2 c-261 -2 -348 -7 -550 -30 -211 -23 -272 -26 -500 -24
l-260 3 0 80 0 80 55 7 c97 12 775 27 1080 23 282 -4 291 -3 195 10 -205 27
-459 46 -750 56 -165 5 -351 16 -413 24 -62 8 -126 15 -143 15 -26 0 -29 3
-29 34 0 43 -6 42 270 61 118 8 247 20 285 25 169 23 406 5 603 -44 73 -19
116 -25 150 -21 33 4 124 -7 306 -40 143 -25 261 -44 262 -42 6 5 -468 146
-580 172 -100 24 -120 25 -260 19 -122 -5 -163 -3 -211 10 -73 20 -198 20
-285 2 -121 -26 -172 -28 -302 -12 -69 9 -152 16 -183 16 l-58 0 7 52 c4 29 9
54 11 56 12 12 905 -4 1260 -23 l100 -5 -44 20 c-25 12 -74 25 -110 30 -36 6
-127 19 -201 30 -89 13 -240 23 -445 30 -170 6 -350 15 -400 20 -49 5 -105 9
-122 9 -34 1 -42 17 -27 56 8 19 11 19 504 -16z m3295 1 c41 -8 80 -24 123
-53 34 -23 62 -44 62 -47 0 -3 -66 -21 -147 -39 -82 -19 -238 -58 -348 -87
-109 -29 -202 -51 -205 -48 -3 3 -4 55 -4 115 2 116 13 150 57 170 29 12 383
4 462 -11z m770 10 c-16 -4 -41 -8 -55 -8 -23 -1 -23 0 -5 8 11 5 36 8 55 8
l35 0 -30 -8z m2338 -59 c338 -11 459 -26 677 -86 l155 -42 3 -52 3 -53 -53 7
c-29 3 -147 20 -263 36 -302 43 -450 52 -645 42 -185 -11 -296 -4 -418 26
-138 33 -204 36 -316 12 -156 -33 -161 -32 -170 54 l-7 60 371 3 c205 1 503
-2 663 -7z m-2214 -32 c6 -18 11 -44 11 -59 0 -23 -5 -28 -32 -33 -61 -11
-308 -82 -308 -88 0 -4 27 -17 60 -29 60 -22 61 -23 147 -6 47 10 97 22 111
27 19 7 29 6 43 -7 11 -10 36 -20 56 -23 28 -5 43 -15 58 -39 15 -24 26 -31
45 -29 21 2 29 12 46 62 21 57 23 60 54 58 73 -3 98 -64 99 -241 1 -86 -1 -93
-21 -101 -18 -6 -19 -9 -5 -14 27 -10 21 -78 -20 -200 l-36 -110 -46 50 c-64
69 -92 87 -50 32 77 -100 76 -171 -1 -79 -23 28 -45 48 -48 45 -3 -2 2 -13 10
-22 9 -10 25 -37 37 -61 17 -33 19 -47 11 -62 -6 -11 -13 -20 -16 -20 -2 0
-14 21 -25 47 -23 53 -94 156 -134 193 -19 18 -14 7 19 -43 43 -64 86 -174 86
-220 0 -12 -18 17 -41 63 -48 101 -110 189 -175 250 -32 30 -40 35 -25 15 l22
-29 -48 -42 c-26 -23 -54 -39 -63 -37 -10 3 -11 2 -4 -4 8 -5 -4 -25 -37 -62
-27 -30 -49 -48 -49 -40 1 22 38 100 67 137 14 18 23 35 20 38 -5 6 -117 -116
-117 -128 0 -18 -28 -6 -56 23 -29 30 -29 31 -9 45 19 15 19 15 -8 9 -17 -5
-34 -2 -45 6 -15 13 -16 12 -4 -3 12 -15 11 -18 -13 -24 -20 -5 -32 -1 -51 17
-27 25 -28 21 36 101 35 43 35 43 5 20 -79 -61 -198 -195 -220 -247 -7 -19 -8
-19 -12 -2 -6 25 38 113 84 167 l38 45 -42 -33 c-53 -42 -100 -96 -121 -138
-18 -38 -27 -42 -41 -17 -12 22 0 46 47 96 48 50 35 47 -32 -7 -30 -25 -57
-42 -60 -39 -13 13 -4 33 34 82 22 28 38 51 36 51 -3 0 -30 -20 -59 -44 -51
-41 -56 -43 -72 -28 -16 16 -16 16 -5 -4 11 -18 10 -27 -9 -58 -13 -20 -24
-36 -25 -36 -2 0 -17 22 -35 49 -34 54 -108 124 -156 149 -25 12 -20 5 27 -46
55 -60 100 -138 114 -197 l7 -30 -23 30 c-37 48 -93 106 -115 117 -15 8 -13 3
8 -22 33 -38 61 -90 53 -97 -3 -3 1 -12 9 -20 8 -8 15 -19 15 -25 0 -6 -15 6
-34 28 -23 26 -30 41 -22 46 6 5 2 8 -11 8 -12 0 -30 11 -41 25 -11 14 -24 25
-28 25 -5 1 -22 12 -39 25 l-29 24 19 23 c20 23 20 23 0 8 -11 -8 -32 -25 -47
-38 -16 -14 -31 -21 -39 -17 -8 5 -10 4 -5 -3 6 -11 -66 -113 -85 -120 -23 -9
0 46 53 128 29 44 28 44 -26 -14 -31 -33 -57 -57 -59 -55 -2 2 -13 17 -25 33
-18 24 -22 42 -22 110 0 45 5 97 11 116 7 19 15 98 18 174 l6 140 55 14 c30 8
203 47 385 88 l330 74 54 -36 c30 -20 71 -39 91 -41 36 -5 39 -3 85 58 27 35
50 66 52 68 5 7 282 59 315 60 21 1 28 -5 37 -30z m-2069 -84 c20 -24 6 -28
-57 -14 -50 10 -54 13 -33 20 42 12 77 10 90 -6z m3715 -56 c33 -4 132 -13
220 -19 192 -13 244 -19 630 -75 299 -43 507 -85 540 -109 14 -10 16 -21 10
-55 -8 -49 38 -52 -355 24 -289 56 -400 71 -645 83 -149 8 -557 1 -752 -13
l-101 -7 5 83 c3 46 7 85 8 87 1 2 47 7 101 11 104 9 239 5 339 -10z m-685
-87 c0 -11 13 -37 29 -60 25 -33 27 -41 15 -46 -23 -9 -124 -7 -124 2 1 10 20
94 25 110 7 20 55 15 55 -6z m-2703 0 c7 -4 15 -22 19 -39 5 -26 3 -31 -19
-37 -14 -3 -32 -9 -41 -12 -19 -7 -20 6 -5 59 10 36 22 44 46 29z m41 -156 c6
-30 27 -86 46 -123 35 -71 70 -176 64 -193 -2 -6 -13 -4 -25 5 -22 15 -22 17
-6 43 13 21 8 19 -26 -13 -55 -52 -134 -167 -176 -257 -31 -65 -34 -69 -28
-33 9 61 40 136 84 206 l40 64 -37 -40 c-45 -50 -107 -143 -124 -187 -18 -44
-18 -44 -34 -22 -12 16 -12 24 0 54 8 19 29 53 46 75 23 31 17 27 -27 -18 -87
-87 -99 -57 -23 58 l39 60 -41 -40 c-31 -29 -41 -34 -37 -20 3 11 18 67 32
125 17 70 42 135 74 195 46 85 50 90 92 101 24 7 47 12 50 13 3 1 11 -23 17
-53z m2758 9 c26 -20 88 -19 105 1 13 15 50 16 409 10 247 -5 438 -13 510 -22
123 -16 371 -59 431 -74 20 -6 96 -19 170 -30 74 -11 185 -30 248 -41 l113
-22 -5 -50 c-4 -27 -8 -52 -11 -54 -2 -3 -107 16 -233 40 -342 68 -378 71
-777 64 -331 -5 -362 -4 -566 19 -118 14 -302 28 -407 31 -151 4 -193 8 -193
19 0 7 5 36 11 63 l10 50 57 4 c31 2 69 4 83 5 14 1 34 -5 45 -13z m301 -205
c203 -33 314 -44 573 -60 380 -23 823 -88 1024 -150 77 -24 74 -11 51 -200
-18 -146 -27 -186 -62 -303 -22 -72 -32 -92 -57 -109 -17 -12 -44 -33 -60 -47
l-28 -26 15 31 c9 16 37 54 63 83 l48 53 -43 -22 c-24 -12 -66 -42 -93 -68
-42 -39 -48 -42 -39 -19 15 40 50 106 88 167 l34 55 -68 -70 c-38 -38 -87 -99
-111 -135 -23 -36 -42 -59 -42 -53 0 24 40 120 75 179 l35 59 -41 -45 c-23
-25 -58 -69 -77 -99 l-36 -53 -19 43 c-19 44 -19 44 4 88 13 24 43 66 68 94
59 65 20 46 -57 -29 -42 -41 -58 -51 -64 -40 -11 20 -99 136 -103 136 -2 0 12
-26 31 -57 43 -72 62 -129 46 -145 -7 -7 -18 5 -38 43 -34 67 -111 181 -159
234 l-36 40 32 -49 32 -49 -49 -43 c-34 -30 -55 -41 -69 -38 -15 4 -16 3 -6
-4 11 -8 3 -24 -38 -77 -28 -38 -51 -63 -51 -57 0 26 44 126 77 175 l35 52
-47 -45 c-26 -25 -62 -67 -81 -95 -38 -56 -41 -52 -18 26 21 71 72 163 125
223 58 65 17 44 -64 -33 -43 -41 -70 -79 -102 -144 l-43 -88 -40 83 c-22 46
-57 101 -76 123 l-36 40 34 -65 c36 -70 61 -141 70 -204 7 -52 0 -42 -38 53
-38 94 -121 228 -183 297 l-44 49 30 -47 c43 -65 122 -229 115 -239 -10 -17
-29 -8 -67 30 -21 22 -61 54 -88 71 -27 18 -49 36 -49 40 0 4 16 22 35 39 43
38 32 40 -21 5 -62 -41 -104 -85 -136 -141 -16 -29 -32 -53 -33 -53 -2 0 -14
21 -25 48 -17 38 -19 51 -10 66 10 16 9 18 -5 12 -13 -4 -33 11 -76 56 -59 62
-59 62 -29 16 47 -72 62 -114 47 -127 -10 -8 -17 -3 -29 17 -9 15 -31 41 -49
57 l-32 30 22 -32 c40 -59 54 -103 40 -129 -11 -22 -15 -17 -60 74 -27 53 -64
115 -83 137 l-35 40 34 -65 c40 -74 75 -179 74 -219 0 -24 -1 -24 -13 9 -41
110 -140 276 -216 360 l-41 45 47 -75 c63 -100 115 -213 104 -224 -6 -6 -28 8
-57 35 -26 24 -60 53 -76 64 l-27 20 31 38 c37 45 26 48 -26 7 -20 -16 -41
-27 -46 -24 -5 3 -8 2 -7 -3 2 -5 -17 -32 -42 -61 -24 -30 -46 -49 -48 -44 -4
12 38 104 69 152 l22 35 -42 -40 c-24 -22 -56 -58 -72 -79 -34 -46 -37 -31
-10 47 23 65 66 131 118 182 20 19 32 35 27 35 -19 0 -114 -71 -140 -105 -15
-20 -28 -34 -30 -32 -6 6 27 241 34 249 9 9 137 36 223 47 73 10 64 10 306
-29z m-4900 -81 c43 -6 84 -15 91 -18 12 -7 -120 -41 -478 -122 -216 -49 -553
-107 -671 -116 -89 -6 -89 -6 -90 18 0 13 -4 50 -8 81 l-7 57 36 5 c19 3 127
11 240 17 206 10 412 33 615 68 134 23 172 24 272 10z m3553 -152 c21 -43 42
-88 45 -100 6 -21 5 -21 -14 3 -11 13 -17 28 -15 32 3 4 -1 8 -9 8 -8 0 -22 9
-32 20 -10 11 -40 34 -66 51 l-49 31 32 44 32 44 18 -27 c11 -16 37 -63 58
-106z m-1626 101 c29 -41 20 -63 -49 -114 -35 -27 -64 -54 -65 -60 0 -6 -9
-19 -21 -30 l-20 -18 20 53 c36 90 95 191 112 191 4 0 15 -10 23 -22z m1119
-42 c15 -23 15 -25 -8 -40 -46 -30 -66 -13 -38 34 21 36 26 37 46 6z m-679
-59 c-10 -6 -22 -3 -34 8 -16 14 -17 21 -8 38 11 20 11 20 34 -8 20 -26 21
-31 8 -38z m797 26 c7 -16 15 -31 17 -35 8 -17 -36 -7 -53 12 -15 16 -15 22
-5 35 18 21 25 19 41 -12z m268 -19 l23 -17 -28 -23 c-33 -27 -34 -27 -53 -15
-11 7 -10 14 5 40 21 36 22 36 53 15z m-1113 -15 c6 -10 -55 -83 -64 -75 -6 7
38 86 48 86 5 0 12 -5 16 -11z m398 -32 c-23 -45 -27 -47 -19 -7 9 44 14 52
26 45 5 -4 2 -20 -7 -38z m260 12 c-21 -24 -29 -18 -14 10 6 12 16 19 21 15 6
-4 4 -13 -7 -25z m116 11 c9 -17 8 -20 -9 -20 -22 0 -35 15 -26 30 10 16 23
12 35 -10z m-686 -6 c4 -9 4 -19 1 -22 -7 -8 -35 19 -29 29 8 14 21 11 28 -7z
m-482 -35 c-5 -32 -7 -33 -32 -19 -21 11 -21 12 -4 31 22 25 40 19 36 -12z
m1275 16 c3 -9 3 -19 -1 -22 -8 -9 -37 18 -30 28 8 14 24 11 31 -6z m285 -2
c10 -9 18 -19 18 -23 0 -14 -43 -19 -62 -9 -19 10 -19 12 -2 30 21 23 23 23
46 2z m-452 -13 c0 -5 -7 -10 -16 -10 -8 0 -12 5 -9 10 3 6 10 10 16 10 5 0 9
-4 9 -10z m-2200 -71 c7 -13 2 -23 -23 -42 -17 -13 -49 -42 -69 -63 -30 -31
-40 -36 -50 -26 -10 10 -3 32 36 109 l49 96 24 -29 c13 -16 28 -36 33 -45z
m1520 63 c0 -5 -9 -17 -20 -27 -23 -21 -26 -14 -8 15 13 20 28 27 28 12z
m1020 0 c0 -5 -9 -17 -20 -27 -22 -20 -26 -14 -10 16 11 19 30 26 30 11z
m-930 -12 c0 -5 -4 -10 -10 -10 -5 0 -10 5 -10 10 0 6 5 10 10 10 6 0 10 -4
10 -10z m685 0 c3 -5 1 -10 -4 -10 -6 0 -11 5 -11 10 0 6 2 10 4 10 3 0 8 -4
11 -10z m-1283 -60 c-37 -34 -40 -30 -11 17 16 25 25 31 32 24 8 -8 2 -19 -21
-41z m928 11 c5 -19 5 -31 -1 -31 -5 0 -9 6 -9 13 0 6 -3 23 -7 37 -9 36 6 19
17 -19z m643 14 c-21 -16 -26 -14 -17 8 3 9 12 13 20 10 12 -4 11 -8 -3 -18z
m140 -25 l22 -35 -37 30 c-39 32 -48 48 -23 43 9 -2 26 -19 38 -38z m-1084 0
c11 -24 11 -24 -3 -6 -9 11 -16 24 -16 30 0 12 5 7 19 -24z m-573 -35 c-15
-23 -36 -34 -36 -18 0 10 43 54 48 48 3 -2 -3 -16 -12 -30z m1602 4 c13 -16
19 -29 14 -29 -16 0 -62 41 -57 51 10 14 18 10 43 -22z m782 7 c0 -3 -4 -8
-10 -11 -5 -3 -10 -1 -10 4 0 6 5 11 10 11 6 0 10 -2 10 -4z m290 -46 c0 -12
-59 -40 -74 -34 -20 8 -20 10 5 51 l21 34 24 -22 c13 -12 24 -25 24 -29z
m-3695 10 c19 -36 19 -36 -1 -44 -8 -3 -26 2 -40 10 -30 20 -43 11 -21 -14 15
-16 15 -19 -2 -29 -17 -11 -61 -8 -61 4 0 12 85 103 96 103 8 0 20 -13 29 -30z
m578 -25 c-5 -22 -37 -44 -49 -32 -6 5 35 57 45 57 5 0 6 -11 4 -25z m3167
-46 c0 -13 -32 -19 -51 -9 -23 13 -24 18 -2 42 17 19 18 19 35 -4 10 -13 18
-26 18 -29z m615 -9 l49 -50 -20 -21 c-18 -17 -24 -18 -47 -8 -32 14 -32 17
-10 49 l16 25 -24 -22 c-14 -13 -31 -23 -37 -23 -7 0 -12 -6 -12 -13 0 -18
-35 -49 -44 -40 -4 5 -7 4 -6 -2 4 -18 0 -30 -20 -55 l-20 -25 16 54 c29 100
73 181 97 181 7 0 35 -23 62 -50z m-4321 14 c11 -30 6 -37 -14 -19 -11 10 -17
22 -14 26 8 14 21 11 28 -7z m3576 8 c0 -5 -9 -17 -20 -27 -22 -20 -26 -14
-10 16 11 19 30 26 30 11z m-3800 -21 c0 -5 -9 -19 -20 -32 l-20 -24 11 33
c10 29 29 45 29 23z m4025 -31 l6 -25 -20 25 c-11 13 -17 28 -14 33 7 12 19
-3 28 -33z m-1675 20 c686 -33 1324 -132 2202 -344 473 -114 678 -158 903
-196 415 -69 640 -65 908 16 48 15 89 25 91 23 2 -2 12 -65 21 -139 13 -99 16
-171 12 -270 -10 -215 -42 -330 -167 -607 -118 -257 -133 -310 -134 -468 -1
-71 2 -149 6 -172 l8 -41 -43 -8 c-65 -11 -438 -8 -562 5 -309 33 -614 90
-1220 230 -1193 274 -1677 345 -2380 344 -688 0 -1200 -73 -2345 -337 -658
-151 -958 -208 -1255 -237 -134 -13 -473 -16 -551 -5 l-51 7 10 52 c5 29 7
108 4 177 -5 143 -26 223 -104 388 -193 412 -229 605 -182 973 7 48 15 92 19
99 6 10 23 7 71 -9 186 -61 406 -83 629 -62 274 26 604 92 1255 250 1101 266
2006 371 2855 331z m-2179 -16 c12 -14 11 -16 -5 -13 -11 2 -21 10 -24 17 -5
17 13 15 29 -4z m3683 7 c3 -5 -1 -12 -10 -15 -20 -8 -29 -1 -19 13 8 13 22
14 29 2z m-3823 -52 c-36 -39 -40 -29 -10 20 13 22 24 30 30 24 7 -7 0 -22
-20 -44z m3949 9 l23 -43 -36 34 c-20 19 -34 38 -31 43 10 16 21 8 44 -34z
m-5146 -6 c26 -38 33 -62 18 -62 -5 0 -35 -24 -67 -54 -71 -67 -92 -65 -65 5
29 73 69 149 79 149 4 0 20 -17 35 -38z m897 -34 c-16 -39 -20 -44 -16 -20 13
80 17 94 27 84 7 -7 3 -28 -11 -64z m4544 1 l6 -44 -19 45 c-10 25 -16 51 -14
59 8 21 20 -8 27 -60z m943 39 c11 -18 32 -62 47 -97 37 -89 19 -97 -58 -25
-32 30 -62 54 -68 54 -5 0 -9 5 -9 11 0 13 52 88 62 89 3 0 15 -15 26 -32z
m-5119 -19 c-16 -10 -23 -4 -14 10 3 6 11 8 17 5 6 -4 5 -9 -3 -15z m3818 -6
c-8 -7 -37 9 -31 19 3 5 12 4 20 -3 8 -6 13 -14 11 -16z m-4518 -29 c-14 -14
-17 -14 -29 0 -10 13 -10 19 0 32 12 14 15 14 29 0 14 -15 14 -17 0 -32z
m5228 26 c11 -16 10 -21 -6 -29 -25 -14 -44 5 -30 31 12 23 21 23 36 -2z
m-5106 -11 c9 -17 8 -23 -2 -30 -19 -12 -25 -11 -39 6 -10 12 -10 18 0 30 17
20 27 19 41 -6z m4990 10 c20 -10 20 -12 4 -29 -14 -15 -22 -17 -36 -9 -15 8
-17 14 -9 29 12 23 15 24 41 9z m207 -26 c6 -20 10 -39 8 -40 -6 -7 -45 61
-40 69 10 17 21 7 32 -29z m-5368 -25 c0 -16 -49 -77 -50 -63 0 12 37 75 45
75 3 0 5 -6 5 -12z m5340 -61 c0 -5 -12 5 -26 22 -14 17 -22 36 -18 42 4 8 14
0 25 -22 10 -19 18 -38 19 -42z m-5789 27 c18 -30 19 -38 8 -45 -19 -12 -20
-12 -53 14 l-29 24 21 21 c12 12 24 22 26 22 2 0 14 -16 27 -36z m544 26 c11
-17 -5 -32 -21 -19 -7 6 -11 15 -8 20 7 12 21 11 29 -1z m107 -15 c6 -14 8
-28 4 -33 -10 -9 -48 37 -40 49 10 16 24 10 36 -16z m4924 14 c7 -12 -32 -57
-41 -47 -7 7 16 58 26 58 4 0 11 -5 15 -11z m98 2 c7 -10 -18 -34 -27 -25 -7
8 3 34 13 34 5 0 11 -4 14 -9z m574 -14 l22 -23 -30 -23 c-19 -14 -38 -20 -50
-16 -20 6 -20 7 0 46 11 21 24 39 28 39 5 0 18 -10 30 -23z m-5774 -68 c-24
-27 -30 -15 -9 18 12 17 20 23 23 15 2 -7 -4 -22 -14 -33z m5270 -18 c-9 -9
-46 37 -39 49 5 8 13 3 26 -16 10 -16 16 -30 13 -33z m-5806 28 c22 -34 -12
-62 -47 -40 -12 8 -12 13 3 35 20 31 27 32 44 5z m637 11 c3 -5 1 -10 -4 -10
-6 0 -11 5 -11 10 0 6 2 10 4 10 3 0 8 -4 11 -10z m5055 0 c0 -5 -5 -10 -11
-10 -5 0 -7 5 -4 10 3 6 8 10 11 10 2 0 4 -4 4 -10z m674 -47 c-22 -16 -26
-16 -49 1 -19 14 -19 15 -1 35 l19 21 24 -22 c23 -21 23 -23 7 -35z m-6260
-22 c-2 -2 -13 4 -24 14 -15 14 -17 20 -8 26 8 5 17 0 25 -14 6 -12 10 -24 7
-26z m6130 18 c-20 -23 -28 -18 -19 10 4 12 12 18 21 14 13 -5 13 -8 -2 -24z
m-6763 -63 c16 -21 29 -43 29 -49 0 -20 -86 69 -98 102 l-12 35 26 -25 c15
-13 40 -42 55 -63z m577 34 c14 -23 10 -25 -19 -9 -11 5 -17 14 -14 20 9 14
19 11 33 -11z m6238 -8 c-8 -9 -19 -13 -22 -9 -10 9 16 38 28 31 6 -4 4 -13
-6 -22z m-6353 11 c3 -5 -10 -26 -29 -47 -39 -45 -43 -40 -12 15 21 38 32 47
41 32z m6488 -35 l21 -43 -35 34 c-20 19 -34 38 -31 43 11 17 24 7 45 -34z
m-6660 -29 c-10 -23 -10 -23 -10 7 -1 17 2 34 7 38 11 12 14 -18 3 -45z m6798
19 c0 -31 -1 -31 -10 -10 -5 13 -7 28 -3 33 10 16 14 9 13 -23z m-6569 -18 c0
-12 -40 -33 -47 -26 -9 8 28 47 38 40 5 -3 9 -9 9 -14z m6374 -5 c12 -18 13
-25 4 -25 -21 1 -51 28 -43 39 10 17 21 13 39 -14z m-7244 -117 c0 -3 -9 -4
-20 -1 -17 5 -20 13 -19 67 l1 61 19 -60 c10 -33 19 -63 19 -67z m8114 56 c6
-46 4 -52 -14 -57 -13 -3 -20 0 -20 10 0 17 22 105 25 101 1 -2 5 -26 9 -54z
m-3789 -1344 c331 -16 803 -72 1068 -126 l29 -6 -29 -17 c-63 -39 -258 -122
-394 -169 -175 -60 -356 -104 -549 -133 -194 -30 -599 -33 -790 -6 -237 34
-454 87 -657 163 -104 38 -356 155 -349 161 6 6 215 41 406 67 463 65 861 86
1265 66z m-2089 -325 c107 -60 132 -119 75 -176 -16 -16 -36 -29 -44 -29 -13
0 -13 -5 -5 -28 14 -37 5 -73 -28 -105 -40 -40 -98 -37 -180 9 -35 20 -66 39
-68 43 -6 9 169 321 181 321 3 0 34 -16 69 -35z m3736 -151 c79 -69 144 -129
146 -133 1 -4 -8 -12 -20 -18 -20 -9 -29 -5 -67 28 l-44 39 -57 -32 -57 -31
13 -56 c12 -50 11 -57 -3 -68 -27 -21 -31 -16 -43 45 -7 31 -25 116 -40 189
l-28 132 22 15 c11 8 24 15 28 15 3 1 71 -56 150 -125z m-4544 -30 c1058 -935
2550 -1229 3896 -767 495 170 1000 467 1348 792 l66 62 49 -11 c103 -22 101
-13 22 -87 -173 -164 -397 -335 -634 -483 -162 -102 -504 -271 -695 -344 -703
-266 -1494 -332 -2235 -185 -642 127 -1240 405 -1749 813 -138 111 -299 256
-292 264 5 4 98 29 119 31 4 1 52 -38 105 -85z m4272 72 c0 -2 3 -12 6 -20 5
-12 -6 -21 -40 -37 -25 -11 -46 -22 -46 -25 0 -2 32 -68 71 -146 66 -132 70
-143 53 -155 -10 -7 -20 -13 -24 -13 -3 0 -37 63 -75 141 -39 77 -73 143 -77
145 -4 3 -26 -5 -48 -16 -22 -11 -45 -18 -50 -15 -27 16 -2 39 98 89 97 50
132 64 132 52z m-3156 -51 c90 -41 113 -63 86 -80 -5 -3 -44 10 -85 29 l-76
35 -20 -45 c-10 -25 -19 -49 -19 -52 1 -4 32 -21 70 -39 71 -32 76 -38 61 -61
-6 -10 -25 -5 -84 22 -43 19 -77 33 -77 32 0 -2 -11 -28 -25 -59 l-24 -56 79
-37 c44 -20 80 -40 80 -43 0 -3 -4 -12 -9 -20 -8 -12 -26 -7 -106 29 -53 24
-98 48 -102 53 -4 7 144 337 152 337 2 0 46 -20 99 -45z m245 -238 c33 -215
26 -210 83 -55 47 127 52 136 72 128 11 -4 20 -15 18 -23 -3 -16 -121 -329
-126 -335 -2 -1 -15 2 -29 9 -28 13 -28 12 -52 194 -9 66 -19 128 -23 138 -5
12 -20 -17 -51 -100 -24 -65 -47 -128 -52 -140 -6 -15 -14 -20 -28 -16 -12 3
-21 10 -21 17 0 11 115 319 125 336 3 5 18 4 34 -1 28 -10 29 -13 50 -152z
m2650 109 c13 -13 20 -29 17 -35 -10 -16 -41 -14 -56 4 -31 37 -110 5 -110
-45 0 -40 23 -50 115 -50 71 0 79 -2 106 -29 41 -41 41 -106 2 -143 -41 -37
-66 -48 -116 -48 -35 0 -50 6 -71 27 -44 44 -10 73 40 34 33 -26 50 -26 92 -1
37 22 43 61 15 92 -13 14 -31 18 -90 18 -108 0 -142 23 -143 96 0 94 132 147
199 80z m-245 -224 c31 -92 56 -173 56 -180 0 -6 -11 -12 -24 -12 -23 0 -29
13 -81 171 -58 174 -60 188 -18 189 6 0 36 -75 67 -168z m-2101 142 c11 -4 4
-38 -39 -181 -29 -96 -54 -176 -56 -178 -2 -1 -13 1 -25 6 -22 8 -22 9 -8 56
8 26 32 105 52 175 37 123 44 135 76 122z m1955 -31 c3 -17 -4 -22 -35 -28
-69 -11 -68 -7 -23 -175 32 -120 38 -155 28 -162 -25 -15 -37 -8 -47 30 -6 20
-24 88 -40 151 -17 62 -32 116 -35 118 -3 3 -26 0 -52 -6 -52 -13 -51 -13 -56
13 -3 17 13 24 117 52 66 18 125 31 130 30 6 -1 11 -12 13 -23z m-1748 -22
c99 -25 115 -31 112 -47 -5 -26 -4 -26 -56 -13 -26 6 -49 9 -52 6 -3 -3 -22
-74 -43 -159 -33 -136 -39 -153 -56 -150 -11 2 -22 6 -24 8 -4 4 41 210 65
302 4 15 2 22 -7 22 -8 0 -31 5 -51 11 -27 7 -38 15 -38 29 0 26 11 25 150 -9z
m1490 -210 c69 -125 88 -166 78 -172 -25 -16 -37 -9 -65 41 -30 54 -35 56
-111 39 l-50 -10 -6 -60 c-6 -54 -9 -59 -31 -59 -14 0 -25 3 -25 8 0 4 11 90
25 191 14 101 25 185 25 186 0 6 55 11 61 5 4 -3 48 -79 99 -169z m-1195 -9
c15 -92 29 -179 32 -194 5 -23 2 -28 -15 -28 -27 0 -38 17 -46 72 -4 26 -10
50 -14 52 -4 2 -35 8 -68 11 l-60 7 -24 -51 c-22 -49 -50 -66 -65 -41 -5 8
140 302 166 336 5 6 22 9 37 6 l29 -4 28 -166z m189 58 l-7 -80 77 0 c42 0 79
-1 84 -2 4 -2 9 31 12 72 5 72 6 75 30 75 14 0 25 -4 25 -10 -3 -90 -18 -326
-22 -343 -4 -17 -11 -22 -27 -20 -20 3 -21 8 -17 89 l3 86 -78 7 c-59 5 -79 4
-85 -6 -5 -7 -9 -46 -9 -85 0 -73 0 -73 -28 -73 l-27 0 12 183 c6 100 12 183
12 185 1 1 12 2 26 2 l25 0 -6 -80z m659 60 c36 -29 46 -84 20 -117 -19 -26
-19 -26 9 -54 22 -21 28 -37 28 -69 0 -81 -36 -107 -160 -117 -44 -3 -80 -4
-80 -2 0 2 -7 78 -15 169 -19 217 -22 198 23 203 103 11 149 7 175 -13z"/>
<path d="M4615 7790 c-16 -11 -41 -33 -55 -50 l-25 -30 -55 21 c-96 37 -165
16 -222 -67 -42 -61 -43 -80 -2 -44 91 79 170 81 270 5 31 -24 33 -24 39 -6
10 34 65 101 98 121 39 24 96 26 140 4 31 -15 31 -14 -10 25 -39 37 -47 41
-95 41 -36 0 -63 -7 -83 -20z"/>
<path d="M5781 7392 c-19 -9 -41 -27 -48 -39 l-15 -22 38 19 c59 30 112 10
159 -61 25 -39 27 -40 48 -25 89 64 134 68 206 15 l42 -30 -15 28 c-43 82
-118 111 -199 75 l-45 -20 -24 25 c-23 25 -76 53 -100 53 -7 0 -28 -8 -47 -18z"/>
<path d="M4908 7225 c-37 -14 -122 -68 -132 -83 -3 -5 25 2 62 15 83 28 160
30 210 4 39 -20 109 -89 157 -153 l27 -38 40 35 c109 93 209 99 286 17 31 -32
34 -33 27 -12 -14 46 -34 77 -70 109 -32 28 -42 31 -98 31 -49 0 -73 -6 -113
-28 l-51 -29 -30 36 c-17 20 -56 51 -87 70 -46 27 -69 34 -124 37 -42 3 -81
-1 -104 -11z"/>
<path d="M7700 5220 c-24 -23 -40 -44 -36 -47 3 -3 30 -7 58 -8 38 -1 61 5 80
18 19 14 35 18 58 13 48 -9 33 16 -21 35 -90 33 -94 33 -139 -11z"/>
<path d="M2312 4490 c-46 -11 -48 -16 -10 -29 39 -12 201 -41 232 -41 39 0
-38 40 -117 61 -39 10 -72 18 -72 18 0 -1 -15 -5 -33 -9z"/>
<path d="M2665 4421 l-50 -6 56 -17 c30 -10 87 -24 125 -32 38 -8 108 -29 154
-45 47 -17 129 -40 182 -51 l97 -19 71 26 72 27 -119 33 c-247 69 -467 101
-588 84z"/>
<path d="M4294 3399 c-661 -25 -1349 -133 -2259 -353 -1031 -249 -1379 -285
-1776 -181 -25 6 -27 4 -33 -40 -13 -80 -7 -316 8 -405 21 -119 56 -217 146
-417 43 -94 90 -207 104 -250 33 -105 49 -232 41 -315 l-6 -68 191 0 c386 0
668 45 1575 254 471 108 653 147 894 191 979 179 1738 189 2681 34 266 -44
606 -114 1102 -229 879 -202 1178 -250 1564 -250 l181 0 5 143 c6 172 23 231
136 477 123 271 159 395 168 594 5 97 -6 270 -18 281 -2 3 -56 -7 -119 -22
-105 -25 -131 -27 -324 -27 -331 -1 -582 42 -1395 239 -896 217 -1547 316
-2255 345 -272 11 -325 11 -611 -1z m234 -667 c51 -216 91 -400 88 -408 -5
-12 -24 -14 -98 -12 l-92 3 -16 80 -16 80 -71 3 c-81 3 -76 9 -88 -110 l-7
-66 -92 -4 c-50 -2 -93 -3 -95 -1 -3 2 24 187 60 411 l64 407 90 6 c50 3 110
5 134 5 l45 -1 94 -393z m599 373 c153 -15 196 -30 245 -82 39 -40 58 -94 58
-161 0 -85 -25 -160 -69 -203 -45 -45 -91 -59 -197 -59 l-81 0 -13 -156 -13
-155 -76 6 c-104 9 -111 12 -111 43 0 15 16 194 35 397 19 204 35 373 35 378
0 10 23 9 187 -8z m-1332 -54 c55 -25 108 -87 134 -156 51 -136 63 -359 25
-469 -23 -65 -86 -129 -150 -149 -54 -18 -303 -51 -312 -42 -8 7 -101 799 -96
805 9 8 189 27 274 28 63 1 95 -3 125 -17z m1960 -21 c70 -10 129 -20 130 -22
5 -5 45 -821 41 -825 -2 -2 -46 2 -97 9 l-94 13 -3 87 c-3 97 1 92 -92 103
l-55 6 -24 -80 c-19 -65 -28 -81 -43 -81 -26 0 -162 21 -167 26 -4 3 269 784
274 784 1 0 60 -9 130 -20z m-2451 -401 c42 -211 76 -392 76 -401 0 -18 -78
-39 -157 -42 l-45 -1 -125 235 c-69 129 -122 224 -119 210 22 -93 96 -453 96
-469 0 -16 -12 -21 -72 -33 -40 -7 -77 -13 -82 -13 -10 0 -167 785 -160 796 7
13 194 43 203 33 5 -5 60 -102 122 -216 62 -114 114 -207 115 -205 1 1 -9 49
-22 107 -20 90 -61 294 -67 339 -1 11 20 19 78 31 44 9 81 16 82 16 1 -1 36
-175 77 -387z m2985 315 c159 -27 238 -57 270 -102 45 -64 50 -161 12 -247
-19 -44 -73 -95 -99 -95 -13 0 -12 -4 5 -22 48 -53 54 -103 28 -248 -8 -47
-15 -100 -15 -117 0 -20 -5 -33 -12 -33 -20 0 -171 30 -176 35 -3 2 3 55 12
118 27 187 21 208 -55 222 l-35 7 -28 -159 c-15 -87 -29 -160 -32 -162 -6 -6
-174 21 -179 29 -2 4 27 182 65 396 39 214 70 392 70 397 0 10 9 9 169 -19z
m1313 -51 c48 -9 88 -19 88 -23 0 -11 -178 -100 -200 -100 -40 0 -151 23 -148
31 6 17 134 108 152 108 11 1 59 -7 108 -16z m-4993 -70 c7 -32 14 -65 17 -74
4 -13 -17 -21 -113 -44 -65 -15 -121 -30 -125 -34 -7 -6 20 -130 31 -143 4 -4
53 3 110 17 56 14 108 25 115 25 12 0 46 -105 46 -139 0 -5 -52 -22 -115 -36
-76 -18 -115 -31 -115 -40 0 -14 27 -139 35 -161 2 -8 45 -2 138 20 l135 33 6
-45 c3 -25 6 -60 6 -78 0 -38 22 -30 -248 -95 -95 -22 -176 -39 -178 -36 -9 9
-193 781 -188 787 8 8 375 98 405 99 24 1 27 -4 38 -56z m4351 -3 c58 -11 115
-22 128 -25 l22 -5 0 -416 0 -416 -30 6 c-17 3 -59 11 -95 18 l-65 11 0 88 c0
96 4 90 -70 104 -19 4 -42 9 -51 11 -13 4 -23 -13 -44 -73 -16 -43 -31 -81
-34 -85 -7 -7 -166 23 -177 34 -7 8 295 768 305 768 4 0 53 -9 111 -20z
m-4858 -126 l16 -65 -69 -282 c-37 -154 -67 -283 -65 -284 2 -2 62 11 135 28
73 17 134 30 135 28 2 -2 6 -38 9 -80 l6 -75 -227 -53 c-125 -29 -231 -54
-236 -55 -5 0 -16 26 -24 59 l-14 60 75 292 c72 279 74 293 54 288 -12 -3 -69
-16 -126 -30 -58 -13 -106 -24 -107 -22 -4 5 -35 150 -32 152 5 3 423 103 439
104 11 1 20 -17 31 -65z m5343 33 c58 -12 60 -13 57 -42 -3 -33 -143 -769
-146 -772 -2 -3 -179 29 -184 33 -3 2 114 630 144 777 6 30 -4 30 129 4z m493
-92 c69 -38 102 -92 109 -179 3 -35 2 -66 -3 -69 -5 -3 -48 2 -96 11 l-88 15
0 43 c0 47 -19 74 -52 74 -36 0 -58 -29 -58 -75 0 -46 -1 -44 143 -167 101
-87 131 -193 87 -312 -24 -63 -78 -117 -135 -136 -23 -8 -68 -11 -116 -8 -156
9 -246 86 -256 221 -3 38 -1 67 5 71 5 3 48 -1 95 -10 l85 -16 5 -46 c12 -111
137 -109 137 2 0 51 -19 80 -95 143 -137 114 -166 169 -147 282 14 81 51 138
112 169 39 20 56 23 130 20 71 -3 94 -9 138 -33z m-6432 -262 c48 -131 113
-306 144 -390 l57 -152 -26 -5 c-87 -17 -155 -27 -165 -23 -6 3 -23 39 -36 82
l-24 77 -59 -7 c-90 -10 -87 -6 -87 -104 l0 -87 -91 -13 c-50 -7 -92 -11 -94
-9 -3 3 26 821 30 826 3 4 213 39 241 41 19 1 32 -26 110 -236z m7021 176
c101 -52 140 -155 130 -349 -15 -278 -92 -431 -233 -460 -133 -28 -262 33
-310 145 -22 53 -30 216 -15 328 25 187 78 291 172 340 49 26 61 28 131 25 56
-3 90 -11 125 -29z m-7487 -79 l0 -80 -102 0 c-155 0 -149 3 -146 -94 l3 -81
116 4 116 3 6 -39 c4 -21 7 -54 7 -74 0 -45 -10 -49 -143 -49 l-99 0 8 -170 7
-170 -97 0 -96 0 0 48 c-1 26 -7 207 -15 402 -7 195 -10 358 -7 362 4 4 70 9
147 11 77 1 175 4 218 5 l77 2 0 -80z"/>
<path d="M4301 2940 c-1 -8 -8 -73 -16 -145 -8 -71 -15 -136 -15 -142 0 -9 16
-13 45 -13 l46 0 -6 33 c-30 165 -53 279 -54 267z"/>
<path d="M5116 2943 c-2 -10 -7 -57 -11 -105 l-7 -88 50 0 c60 0 82 21 89 84
8 68 -2 95 -42 112 -46 19 -73 18 -79 -3z"/>
<path d="M3605 2878 c3 -24 17 -140 31 -258 14 -118 27 -216 30 -219 2 -2 21
0 42 5 51 12 72 56 72 149 0 90 -24 250 -46 304 -19 49 -38 61 -94 61 l-41 0
6 -42z"/>
<path d="M5682 2714 c-24 -80 -41 -148 -38 -151 2 -3 23 -7 45 -10 l41 -6 0
157 c0 86 -1 156 -2 156 -2 0 -22 -66 -46 -146z"/>
<path d="M6271 2722 c-7 -42 -15 -87 -18 -98 -4 -19 1 -22 34 -26 82 -10 117
27 111 118 -3 53 -16 65 -84 77 l-31 6 -12 -77z"/>
<path d="M6887 2498 c-27 -77 -47 -142 -45 -144 2 -2 22 -6 44 -10 l41 -6 7
147 c4 81 6 148 4 150 -2 2 -25 -60 -51 -137z"/>
<path d="M1310 2260 l0 -153 42 7 c23 4 44 9 46 10 3 4 -78 277 -84 285 -2 2
-4 -64 -4 -149z"/>
<path d="M8367 2418 c-40 -31 -77 -206 -80 -378 -2 -78 1 -101 16 -123 23 -36
71 -34 98 3 38 52 80 372 60 448 -16 56 -56 78 -94 50z"/>
<path d="M2742 1351 c-12 -21 -22 -43 -22 -48 0 -13 74 -53 97 -53 11 0 28 9
38 20 27 29 10 69 -40 97 -22 13 -43 23 -46 23 -3 0 -15 -17 -27 -39z"/>
<path d="M2660 1205 c-36 -63 -34 -71 30 -100 48 -22 83 -11 102 31 16 35 -3
68 -59 101 l-41 24 -32 -56z"/>
<path d="M6410 1312 c0 -5 7 -42 16 -81 l16 -71 37 21 c20 12 40 25 44 29 4 4
-19 31 -52 60 -34 28 -61 48 -61 42z"/>
<path d="M5247 864 c-3 -16 -9 -53 -13 -83 l-6 -53 43 7 c24 4 47 10 51 14 3
3 -11 37 -32 75 -36 65 -38 67 -43 40z"/>
<path d="M4067 815 c-40 -81 -40 -79 26 -90 43 -7 42 -9 24 98 l-12 68 -38
-76z"/>
<path d="M4887 863 c-24 -4 -28 -8 -23 -26 3 -12 6 -37 6 -55 l0 -33 53 7 c82
10 111 50 67 94 -19 19 -41 22 -103 13z"/>
<path d="M4918 713 l-38 -4 0 -57 c0 -77 6 -84 65 -75 56 7 85 32 85 71 0 49
-41 72 -112 65z"/>
</g>
</svg>
